# MagicaVoxel @ Ephtracy

# group
o 

# material
mtllib Mimi3.mtl
usemtl palette

# normals
vn -1 0 0
vn 1 0 0
vn 0 0 1
vn 0 0 -1
vn 0 -1 0
vn 0 1 0

# texcoords
vt 0.00195313 0.5

# verts
v -0.15 -0.25 0.1
v -0.15 -0.25 -0.1
v -0.15 -0.05 0
v -0.15 -0.05 -0.1
v -0.15 0.25 0.1
v -0.15 0.25 0
v -0.05 -0.05 0
v -0.05 -0.05 -0.1
v -0.05 0.05 0
v -0.05 0.05 -0.1
v -0.05 0.15 0.1
v -0.05 0.15 0
v -0.05 0.25 0.1
v -0.05 0.25 0
v 0.05 -0.15 0
v 0.05 -0.15 -0.1
v 0.05 0.05 0.1
v 0.05 0.05 0
v 0.05 0.05 -0.1
v 0.05 0.15 0.1
v 0.05 0.15 0
v 0.15 -0.25 0.1
v 0.15 -0.25 -0.1
v 0.15 -0.15 0
v 0.15 -0.15 -0.1
v 0.15 0.05 0.1
v 0.15 0.05 0
v -0.15 -0.25 0.1
v -0.15 0.25 0.1
v -0.05 0.15 0.1
v -0.05 0.25 0.1
v 0.05 0.05 0.1
v 0.05 0.15 0.1
v 0.15 -0.25 0.1
v 0.15 0.05 0.1
v -0.15 -0.05 0
v -0.15 0.25 0
v -0.05 -0.05 0
v -0.05 0.05 0
v -0.05 0.15 0
v -0.05 0.25 0
v 0.05 -0.15 0
v 0.05 0.05 0
v 0.05 0.15 0
v 0.15 -0.15 0
v 0.15 0.05 0
v -0.15 -0.25 -0.1
v -0.15 -0.05 -0.1
v -0.05 -0.05 -0.1
v -0.05 0.05 -0.1
v 0.05 -0.15 -0.1
v 0.05 0.05 -0.1
v 0.15 -0.25 -0.1
v 0.15 -0.15 -0.1
v -0.15 -0.25 0.1
v 0.15 -0.25 0.1
v -0.15 -0.25 -0.1
v 0.15 -0.25 -0.1
v 0.05 -0.15 0
v 0.15 -0.15 0
v 0.05 -0.15 -0.1
v 0.15 -0.15 -0.1
v -0.15 -0.05 0
v -0.05 -0.05 0
v -0.15 -0.05 -0.1
v -0.05 -0.05 -0.1
v 0.05 0.05 0.1
v 0.15 0.05 0.1
v -0.05 0.05 0
v 0.05 0.05 0
v 0.15 0.05 0
v -0.05 0.05 -0.1
v 0.05 0.05 -0.1
v -0.05 0.15 0.1
v 0.05 0.15 0.1
v -0.05 0.15 0
v 0.05 0.15 0
v -0.15 0.25 0.1
v -0.05 0.25 0.1
v -0.15 0.25 0
v -0.05 0.25 0

# faces
f 3/1/1 2/1/1 1/1/1
f 4/1/1 2/1/1 3/1/1
f 5/1/1 3/1/1 1/1/1
f 6/1/1 3/1/1 5/1/1
f 9/1/1 8/1/1 7/1/1
f 10/1/1 8/1/1 9/1/1
f 11/1/2 12/1/2 13/1/2
f 13/1/2 12/1/2 14/1/2
f 15/1/2 16/1/2 18/1/2
f 18/1/2 16/1/2 19/1/2
f 17/1/2 18/1/2 20/1/2
f 20/1/2 18/1/2 21/1/2
f 22/1/2 23/1/2 24/1/2
f 24/1/2 23/1/2 25/1/2
f 22/1/2 24/1/2 26/1/2
f 26/1/2 24/1/2 27/1/2
f 30/1/3 29/1/3 28/1/3
f 31/1/3 29/1/3 30/1/3
f 32/1/3 30/1/3 28/1/3
f 33/1/3 30/1/3 32/1/3
f 34/1/3 32/1/3 28/1/3
f 35/1/3 32/1/3 34/1/3
f 36/1/4 37/1/4 38/1/4
f 38/1/4 37/1/4 39/1/4
f 39/1/4 37/1/4 40/1/4
f 40/1/4 37/1/4 41/1/4
f 39/1/4 40/1/4 43/1/4
f 43/1/4 40/1/4 44/1/4
f 42/1/4 43/1/4 45/1/4
f 45/1/4 43/1/4 46/1/4
f 47/1/4 48/1/4 49/1/4
f 47/1/4 49/1/4 51/1/4
f 49/1/4 50/1/4 51/1/4
f 51/1/4 50/1/4 52/1/4
f 47/1/4 51/1/4 53/1/4
f 53/1/4 51/1/4 54/1/4
f 57/1/5 56/1/5 55/1/5
f 58/1/5 56/1/5 57/1/5
f 59/1/6 60/1/6 61/1/6
f 61/1/6 60/1/6 62/1/6
f 63/1/6 64/1/6 65/1/6
f 65/1/6 64/1/6 66/1/6
f 67/1/6 68/1/6 70/1/6
f 70/1/6 68/1/6 71/1/6
f 69/1/6 70/1/6 72/1/6
f 72/1/6 70/1/6 73/1/6
f 74/1/6 75/1/6 76/1/6
f 76/1/6 75/1/6 77/1/6
f 78/1/6 79/1/6 80/1/6
f 80/1/6 79/1/6 81/1/6
