# MagicaVoxel @ Ephtracy

# group
o 

# material
mtllib Modosalizer.mtl
usemtl palette

# normals
vn -1 0 0
vn 1 0 0
vn 0 0 1
vn 0 0 -1
vn 0 -1 0
vn 0 1 0

# texcoords
vt 0.0449219 0.5
vt 0.0488281 0.5
vt 0.126953 0.5
vt 0.134766 0.5

# verts
v -0.5 0.05 0.05
v -0.5 0.05 -0.05
v -0.5 0.15 0.05
v -0.5 0.15 -0.05
v -0.4 -0.05 0.15
v -0.4 -0.05 -0.15
v -0.4 0.05 0.05
v -0.4 0.05 -0.05
v -0.4 0.15 0.05
v -0.4 0.15 -0.05
v -0.4 0.25 0.15
v -0.4 0.25 -0.15
v -0.2 -0.05 0.15
v -0.2 -0.05 -0.15
v -0.2 0.05 0.05
v -0.2 0.05 -0.05
v -0.2 0.15 0.05
v -0.2 0.15 -0.05
v -0.2 0.25 0.15
v -0.2 0.25 -0.15
v 0 -0.05 0.15
v 0 -0.05 -0.05
v 0 0.05 0.15
v 0 0.05 0.05
v 0 0.05 -0.05
v 0 0.15 0.15
v 0 0.15 0.05
v 0.1 -0.15 0.15
v 0.1 -0.15 0.05
v 0.1 -0.05 0.15
v 0.1 -0.05 0.05
v 0.1 0.15 0.05
v 0.1 0.15 -0.05
v 0.1 0.25 0.05
v 0.1 0.25 -0.05
v 0.2 -0.25 0.15
v 0.2 -0.25 0.05
v 0.2 -0.15 0.15
v 0.2 -0.15 0.05
v -0.3 -0.05 0.15
v -0.3 -0.05 -0.15
v -0.3 0.05 0.05
v -0.3 0.05 -0.05
v -0.3 0.15 0.05
v -0.3 0.15 -0.05
v -0.3 0.25 0.15
v -0.3 0.25 -0.15
v -0.1 -0.05 0.15
v -0.1 -0.05 -0.15
v -0.1 0.05 0.05
v -0.1 0.05 -0.05
v -0.1 0.15 0.05
v -0.1 0.15 -0.05
v -0.1 0.25 0.15
v -0.1 0.25 -0.15
v 0.3 -0.25 0.15
v 0.3 -0.25 0.05
v 0.3 -0.05 0.15
v 0.3 -0.05 0.05
v 0.3 0.15 0.05
v 0.3 0.15 -0.05
v 0.3 0.25 0.05
v 0.3 0.25 -0.05
v 0.5 -0.05 0.15
v 0.5 -0.05 -0.05
v 0.5 0.15 0.15
v 0.5 0.15 -0.05
v -0.4 -0.05 0.15
v -0.4 0.25 0.15
v -0.3 -0.05 0.15
v -0.3 0.25 0.15
v -0.2 -0.05 0.15
v -0.2 0.25 0.15
v -0.1 -0.05 0.15
v -0.1 0.25 0.15
v 0 -0.05 0.15
v 0 0.05 0.15
v 0 0.15 0.15
v 0.1 -0.15 0.15
v 0.1 -0.05 0.15
v 0.1 0.05 0.15
v 0.1 0.15 0.15
v 0.2 -0.25 0.15
v 0.2 -0.15 0.15
v 0.2 -0.05 0.15
v 0.2 0.05 0.15
v 0.2 0.15 0.15
v 0.3 -0.25 0.15
v 0.3 -0.05 0.15
v 0.5 -0.05 0.15
v 0.5 0.15 0.15
v -0.5 0.05 0.05
v -0.5 0.15 0.05
v -0.4 0.05 0.05
v -0.4 0.15 0.05
v -0.3 0.05 0.05
v -0.3 0.15 0.05
v -0.2 0.05 0.05
v -0.2 0.15 0.05
v -0.1 0.05 0.05
v -0.1 0.15 0.05
v 0 0.05 0.05
v 0 0.15 0.05
v 0.1 0.15 0.05
v 0.1 0.25 0.05
v 0.2 0.15 0.05
v 0.3 0.15 0.05
v 0.3 0.25 0.05
v 0.1 -0.15 0.05
v 0.1 -0.05 0.05
v 0.2 -0.25 0.05
v 0.2 -0.15 0.05
v 0.2 -0.05 0.05
v 0.3 -0.25 0.05
v 0.3 -0.05 0.05
v -0.5 0.05 -0.05
v -0.5 0.15 -0.05
v -0.4 0.05 -0.05
v -0.4 0.15 -0.05
v -0.3 0.05 -0.05
v -0.3 0.15 -0.05
v -0.2 0.05 -0.05
v -0.2 0.15 -0.05
v -0.1 0.05 -0.05
v -0.1 0.15 -0.05
v 0 -0.05 -0.05
v 0 0.05 -0.05
v 0 0.15 -0.05
v 0.1 -0.05 -0.05
v 0.1 0.05 -0.05
v 0.1 0.15 -0.05
v 0.1 0.25 -0.05
v 0.2 -0.05 -0.05
v 0.2 0.05 -0.05
v 0.2 0.15 -0.05
v 0.3 0.15 -0.05
v 0.3 0.25 -0.05
v 0.5 -0.05 -0.05
v 0.5 0.15 -0.05
v -0.4 -0.05 -0.15
v -0.4 0.25 -0.15
v -0.3 -0.05 -0.15
v -0.3 0.25 -0.15
v -0.2 -0.05 -0.15
v -0.2 0.25 -0.15
v -0.1 -0.05 -0.15
v -0.1 0.25 -0.15
v 0.2 -0.25 0.15
v 0.3 -0.25 0.15
v 0.2 -0.25 0.05
v 0.3 -0.25 0.05
v 0.1 -0.15 0.15
v 0.2 -0.15 0.15
v 0.1 -0.15 0.05
v 0.2 -0.15 0.05
v -0.4 -0.05 0.15
v -0.3 -0.05 0.15
v -0.2 -0.05 0.15
v -0.1 -0.05 0.15
v 0 -0.05 0.15
v 0.1 -0.05 0.15
v 0.3 -0.05 0.15
v 0.5 -0.05 0.15
v 0.1 -0.05 0.05
v 0.2 -0.05 0.05
v 0.3 -0.05 0.05
v 0 -0.05 -0.05
v 0.1 -0.05 -0.05
v 0.2 -0.05 -0.05
v 0.5 -0.05 -0.05
v -0.4 -0.05 -0.15
v -0.3 -0.05 -0.15
v -0.2 -0.05 -0.15
v -0.1 -0.05 -0.15
v -0.5 0.05 0.05
v -0.4 0.05 0.05
v -0.3 0.05 0.05
v -0.2 0.05 0.05
v -0.1 0.05 0.05
v 0 0.05 0.05
v -0.5 0.05 -0.05
v -0.4 0.05 -0.05
v -0.3 0.05 -0.05
v -0.2 0.05 -0.05
v -0.1 0.05 -0.05
v 0 0.05 -0.05
v 0 0.15 0.15
v 0.1 0.15 0.15
v 0.2 0.15 0.15
v 0.5 0.15 0.15
v -0.5 0.15 0.05
v -0.4 0.15 0.05
v -0.3 0.15 0.05
v -0.2 0.15 0.05
v -0.1 0.15 0.05
v 0 0.15 0.05
v 0.1 0.15 0.05
v 0.2 0.15 0.05
v 0.3 0.15 0.05
v -0.5 0.15 -0.05
v -0.4 0.15 -0.05
v -0.3 0.15 -0.05
v -0.2 0.15 -0.05
v -0.1 0.15 -0.05
v 0 0.15 -0.05
v 0.1 0.15 -0.05
v 0.3 0.15 -0.05
v 0.5 0.15 -0.05
v -0.4 0.25 0.15
v -0.3 0.25 0.15
v -0.2 0.25 0.15
v -0.1 0.25 0.15
v 0.1 0.25 0.05
v 0.3 0.25 0.05
v 0.1 0.25 -0.05
v 0.3 0.25 -0.05
v -0.4 0.25 -0.15
v -0.3 0.25 -0.15
v -0.2 0.25 -0.15
v -0.1 0.25 -0.15

# faces
f 3/2/1 2/2/1 1/2/1
f 4/2/1 2/2/1 3/2/1
f 7/3/1 6/3/1 5/3/1
f 8/3/1 6/3/1 7/3/1
f 9/3/1 7/3/1 5/3/1
f 10/3/1 6/3/1 8/3/1
f 11/3/1 9/3/1 5/3/1
f 11/3/1 10/3/1 9/3/1
f 12/3/1 6/3/1 10/3/1
f 12/3/1 10/3/1 11/3/1
f 15/3/1 14/3/1 13/3/1
f 16/3/1 14/3/1 15/3/1
f 17/3/1 15/3/1 13/3/1
f 18/3/1 14/3/1 16/3/1
f 19/3/1 17/3/1 13/3/1
f 19/3/1 18/3/1 17/3/1
f 20/3/1 14/3/1 18/3/1
f 20/3/1 18/3/1 19/3/1
f 23/4/1 22/4/1 21/4/1
f 24/4/1 22/4/1 23/4/1
f 25/4/1 22/4/1 24/4/1
f 26/3/1 24/3/1 23/3/1
f 27/3/1 24/3/1 26/3/1
f 30/2/1 29/2/1 28/2/1
f 31/2/1 29/2/1 30/2/1
f 34/1/1 33/1/1 32/1/1
f 35/1/1 33/1/1 34/1/1
f 38/1/1 37/1/1 36/1/1
f 39/1/1 37/1/1 38/1/1
f 40/3/2 41/3/2 42/3/2
f 42/3/2 41/3/2 43/3/2
f 40/3/2 42/3/2 44/3/2
f 43/3/2 41/3/2 45/3/2
f 40/3/2 44/3/2 46/3/2
f 44/3/2 45/3/2 46/3/2
f 45/3/2 41/3/2 47/3/2
f 46/3/2 45/3/2 47/3/2
f 48/3/2 49/3/2 50/3/2
f 50/3/2 49/3/2 51/3/2
f 48/3/2 50/3/2 52/3/2
f 51/3/2 49/3/2 53/3/2
f 48/3/2 52/3/2 54/3/2
f 52/3/2 53/3/2 54/3/2
f 53/3/2 49/3/2 55/3/2
f 54/3/2 53/3/2 55/3/2
f 56/1/2 57/1/2 58/1/2
f 58/1/2 57/1/2 59/1/2
f 60/1/2 61/1/2 62/1/2
f 62/1/2 61/1/2 63/1/2
f 64/1/2 65/1/2 66/1/2
f 66/1/2 65/1/2 67/1/2
f 70/3/3 69/3/3 68/3/3
f 71/3/3 69/3/3 70/3/3
f 74/3/3 73/3/3 72/3/3
f 75/3/3 73/3/3 74/3/3
f 80/4/3 77/4/3 76/4/3
f 81/3/3 78/3/3 77/3/3
f 81/4/3 77/4/3 80/4/3
f 82/3/3 78/3/3 81/3/3
f 84/2/3 80/2/3 79/2/3
f 85/3/3 81/3/3 80/3/3
f 85/2/3 80/2/3 84/2/3
f 86/4/3 82/4/3 81/4/3
f 86/3/3 81/3/3 85/3/3
f 87/4/3 82/4/3 86/4/3
f 88/1/3 84/1/3 83/1/3
f 88/1/3 85/1/3 84/1/3
f 88/1/3 87/1/3 86/1/3
f 88/1/3 86/1/3 85/1/3
f 89/1/3 87/1/3 88/1/3
f 90/1/3 87/1/3 89/1/3
f 91/1/3 87/1/3 90/1/3
f 94/2/3 93/2/3 92/2/3
f 95/2/3 93/2/3 94/2/3
f 98/2/3 97/2/3 96/2/3
f 99/2/3 97/2/3 98/2/3
f 102/2/3 101/2/3 100/2/3
f 103/2/3 101/2/3 102/2/3
f 106/1/3 105/1/3 104/1/3
f 107/1/3 105/1/3 106/1/3
f 108/1/3 105/1/3 107/1/3
f 109/2/4 110/2/4 112/2/4
f 112/2/4 110/2/4 113/2/4
f 111/1/4 112/1/4 114/1/4
f 112/1/4 113/1/4 114/1/4
f 114/1/4 113/1/4 115/1/4
f 116/2/4 117/2/4 118/2/4
f 118/2/4 117/2/4 119/2/4
f 120/2/4 121/2/4 122/2/4
f 122/2/4 121/2/4 123/2/4
f 124/2/4 125/2/4 127/2/4
f 127/2/4 125/2/4 128/2/4
f 126/4/4 127/4/4 129/4/4
f 127/3/4 128/3/4 130/3/4
f 129/4/4 127/4/4 130/4/4
f 130/3/4 128/3/4 131/3/4
f 129/3/4 130/3/4 133/3/4
f 130/4/4 131/4/4 134/4/4
f 133/3/4 130/3/4 134/3/4
f 131/1/4 132/1/4 135/1/4
f 134/4/4 131/4/4 135/4/4
f 133/1/4 134/1/4 136/1/4
f 135/1/4 132/1/4 136/1/4
f 134/1/4 135/1/4 136/1/4
f 136/1/4 132/1/4 137/1/4
f 133/1/4 136/1/4 138/1/4
f 138/1/4 136/1/4 139/1/4
f 140/3/4 141/3/4 142/3/4
f 142/3/4 141/3/4 143/3/4
f 144/3/4 145/3/4 146/3/4
f 146/3/4 145/3/4 147/3/4
f 150/1/5 149/1/5 148/1/5
f 151/1/5 149/1/5 150/1/5
f 154/2/5 153/2/5 152/2/5
f 155/2/5 153/2/5 154/2/5
f 164/4/5 161/4/5 160/4/5
f 166/1/5 163/1/5 162/1/5
f 167/4/5 164/4/5 160/4/5
f 168/3/5 165/3/5 164/3/5
f 168/4/5 164/4/5 167/4/5
f 169/1/5 166/1/5 165/1/5
f 169/3/5 165/3/5 168/3/5
f 170/1/5 163/1/5 166/1/5
f 170/1/5 166/1/5 169/1/5
f 171/3/5 157/3/5 156/3/5
f 172/3/5 157/3/5 171/3/5
f 173/3/5 159/3/5 158/3/5
f 174/3/5 159/3/5 173/3/5
f 181/2/5 176/2/5 175/2/5
f 182/2/5 176/2/5 181/2/5
f 183/2/5 178/2/5 177/2/5
f 184/2/5 178/2/5 183/2/5
f 185/2/5 180/2/5 179/2/5
f 186/2/5 180/2/5 185/2/5
f 187/3/6 188/3/6 196/3/6
f 188/4/6 189/4/6 197/4/6
f 196/3/6 188/3/6 197/3/6
f 189/1/6 190/1/6 198/1/6
f 197/4/6 189/4/6 198/4/6
f 198/1/6 190/1/6 199/1/6
f 191/2/6 192/2/6 200/2/6
f 200/2/6 192/2/6 201/2/6
f 193/2/6 194/2/6 202/2/6
f 202/2/6 194/2/6 203/2/6
f 195/2/6 196/2/6 204/2/6
f 196/3/6 197/3/6 205/3/6
f 204/2/6 196/2/6 205/2/6
f 205/3/6 197/3/6 206/3/6
f 199/1/6 190/1/6 207/1/6
f 207/1/6 190/1/6 208/1/6
f 213/1/6 214/1/6 215/1/6
f 215/1/6 214/1/6 216/1/6
f 209/3/6 210/3/6 217/3/6
f 217/3/6 210/3/6 218/3/6
f 211/3/6 212/3/6 219/3/6
f 219/3/6 212/3/6 220/3/6
