# MagicaVoxel @ Ephtracy

# group
o 

# material
mtllib Lamp.mtl
usemtl palette

# normals
vn -1 0 0
vn 1 0 0
vn 0 0 1
vn 0 0 -1
vn 0 -1 0
vn 0 1 0

# texcoords
vt 0.00976563 0.5
vt 0.0136719 0.5
vt 0.0527344 0.5

# verts
v -0.5 -2.3 0.5
v -0.5 -2.3 -0.5
v -0.5 -2.2 0.5
v -0.5 -2.2 -0.5
v -0.5 1.2 0.5
v -0.5 1.2 -0.5
v -0.5 2.1 0.5
v -0.5 2.1 -0.5
v -0.4 2.1 0.4
v -0.4 2.1 -0.4
v -0.4 2.2 0.4
v -0.4 2.2 -0.4
v -0.2 2.2 0.2
v -0.2 2.2 -0.2
v -0.2 2.3 0.2
v -0.2 2.3 -0.2
v -0.1 -2.2 0.1
v -0.1 -2.2 -0.1
v -0.1 1.2 0.1
v -0.1 1.2 -0.1
v 0.1 -2.2 0.1
v 0.1 -2.2 -0.1
v 0.1 1.2 0.1
v 0.1 1.2 -0.1
v 0.2 2.2 0.2
v 0.2 2.2 -0.2
v 0.2 2.3 0.2
v 0.2 2.3 -0.2
v 0.4 2.1 0.4
v 0.4 2.1 -0.4
v 0.4 2.2 0.4
v 0.4 2.2 -0.4
v 0.5 -2.3 0.5
v 0.5 -2.3 -0.5
v 0.5 -2.2 0.5
v 0.5 -2.2 -0.5
v 0.5 1.2 0.5
v 0.5 1.2 -0.5
v 0.5 2.1 0.5
v 0.5 2.1 -0.5
v -0.5 -2.3 0.5
v -0.5 -2.2 0.5
v -0.5 1.2 0.5
v -0.5 2.1 0.5
v 0.5 -2.3 0.5
v 0.5 -2.2 0.5
v 0.5 1.2 0.5
v 0.5 2.1 0.5
v -0.4 2.1 0.4
v -0.4 2.2 0.4
v 0.4 2.1 0.4
v 0.4 2.2 0.4
v -0.2 2.2 0.2
v -0.2 2.3 0.2
v 0.2 2.2 0.2
v 0.2 2.3 0.2
v -0.1 -2.2 0.1
v -0.1 1.2 0.1
v 0.1 -2.2 0.1
v 0.1 1.2 0.1
v -0.1 -2.2 -0.1
v -0.1 1.2 -0.1
v 0.1 -2.2 -0.1
v 0.1 1.2 -0.1
v -0.2 2.2 -0.2
v -0.2 2.3 -0.2
v 0.2 2.2 -0.2
v 0.2 2.3 -0.2
v -0.4 2.1 -0.4
v -0.4 2.2 -0.4
v 0.4 2.1 -0.4
v 0.4 2.2 -0.4
v -0.5 -2.3 -0.5
v -0.5 -2.2 -0.5
v -0.5 1.2 -0.5
v -0.5 2.1 -0.5
v 0.5 -2.3 -0.5
v 0.5 -2.2 -0.5
v 0.5 1.2 -0.5
v 0.5 2.1 -0.5
v -0.5 -2.3 0.5
v 0.5 -2.3 0.5
v -0.5 -2.3 -0.5
v 0.5 -2.3 -0.5
v -0.5 1.2 0.5
v 0.5 1.2 0.5
v -0.1 1.2 0.1
v 0.1 1.2 0.1
v -0.1 1.2 -0.1
v 0.1 1.2 -0.1
v -0.5 1.2 -0.5
v 0.5 1.2 -0.5
v -0.5 -2.2 0.5
v 0.5 -2.2 0.5
v -0.1 -2.2 0.1
v 0.1 -2.2 0.1
v -0.1 -2.2 -0.1
v 0.1 -2.2 -0.1
v -0.5 -2.2 -0.5
v 0.5 -2.2 -0.5
v -0.5 2.1 0.5
v 0.5 2.1 0.5
v -0.4 2.1 0.4
v 0.4 2.1 0.4
v -0.4 2.1 -0.4
v 0.4 2.1 -0.4
v -0.5 2.1 -0.5
v 0.5 2.1 -0.5
v -0.4 2.2 0.4
v 0.4 2.2 0.4
v -0.2 2.2 0.2
v 0.2 2.2 0.2
v -0.2 2.2 -0.2
v 0.2 2.2 -0.2
v -0.4 2.2 -0.4
v 0.4 2.2 -0.4
v -0.2 2.3 0.2
v 0.2 2.3 0.2
v -0.2 2.3 -0.2
v 0.2 2.3 -0.2

# faces
f 3/1/1 2/1/1 1/1/1
f 4/1/1 2/1/1 3/1/1
f 7/3/1 6/3/1 5/3/1
f 8/3/1 6/3/1 7/3/1
f 11/3/1 10/3/1 9/3/1
f 12/3/1 10/3/1 11/3/1
f 15/3/1 14/3/1 13/3/1
f 16/3/1 14/3/1 15/3/1
f 19/2/1 18/2/1 17/2/1
f 20/2/1 18/2/1 19/2/1
f 21/2/2 22/2/2 23/2/2
f 23/2/2 22/2/2 24/2/2
f 25/3/2 26/3/2 27/3/2
f 27/3/2 26/3/2 28/3/2
f 29/3/2 30/3/2 31/3/2
f 31/3/2 30/3/2 32/3/2
f 33/1/2 34/1/2 35/1/2
f 35/1/2 34/1/2 36/1/2
f 37/3/2 38/3/2 39/3/2
f 39/3/2 38/3/2 40/3/2
f 45/1/3 42/1/3 41/1/3
f 46/1/3 42/1/3 45/1/3
f 47/3/3 44/3/3 43/3/3
f 48/3/3 44/3/3 47/3/3
f 51/3/3 50/3/3 49/3/3
f 52/3/3 50/3/3 51/3/3
f 55/3/3 54/3/3 53/3/3
f 56/3/3 54/3/3 55/3/3
f 59/2/3 58/2/3 57/2/3
f 60/2/3 58/2/3 59/2/3
f 61/2/4 62/2/4 63/2/4
f 63/2/4 62/2/4 64/2/4
f 65/3/4 66/3/4 67/3/4
f 67/3/4 66/3/4 68/3/4
f 69/3/4 70/3/4 71/3/4
f 71/3/4 70/3/4 72/3/4
f 73/1/4 74/1/4 77/1/4
f 77/1/4 74/1/4 78/1/4
f 75/3/4 76/3/4 79/3/4
f 79/3/4 76/3/4 80/3/4
f 83/1/5 82/1/5 81/1/5
f 84/1/5 82/1/5 83/1/5
f 87/3/5 86/3/5 85/3/5
f 88/3/5 86/3/5 87/3/5
f 89/3/5 87/3/5 85/3/5
f 90/3/5 86/3/5 88/3/5
f 91/3/5 89/3/5 85/3/5
f 91/3/5 90/3/5 89/3/5
f 92/3/5 86/3/5 90/3/5
f 92/3/5 90/3/5 91/3/5
f 93/1/6 94/1/6 95/1/6
f 95/1/6 94/1/6 96/1/6
f 93/1/6 95/1/6 97/1/6
f 96/1/6 94/1/6 98/1/6
f 93/1/6 97/1/6 99/1/6
f 97/1/6 98/1/6 99/1/6
f 98/1/6 94/1/6 100/1/6
f 99/1/6 98/1/6 100/1/6
f 101/3/6 102/3/6 103/3/6
f 103/3/6 102/3/6 104/3/6
f 101/3/6 103/3/6 105/3/6
f 104/3/6 102/3/6 106/3/6
f 101/3/6 105/3/6 107/3/6
f 105/3/6 106/3/6 107/3/6
f 106/3/6 102/3/6 108/3/6
f 107/3/6 106/3/6 108/3/6
f 109/3/6 110/3/6 111/3/6
f 111/3/6 110/3/6 112/3/6
f 109/3/6 111/3/6 113/3/6
f 112/3/6 110/3/6 114/3/6
f 109/3/6 113/3/6 115/3/6
f 113/3/6 114/3/6 115/3/6
f 114/3/6 110/3/6 116/3/6
f 115/3/6 114/3/6 116/3/6
f 117/3/6 118/3/6 119/3/6
f 119/3/6 118/3/6 120/3/6
