# MagicaVoxel @ Ephtracy

# group
o 

# material
mtllib Eye1.mtl
usemtl palette

# normals
vn -1 0 0
vn 1 0 0
vn 0 0 1
vn 0 0 -1
vn 0 -1 0
vn 0 1 0

# texcoords
vt 0.00195313 0.5
vt 0.00585938 0.5
vt 0.00976563 0.5
vt 0.0136719 0.5

# verts
v -0.1 -0.1 0.05
v -0.1 -0.1 -0.05
v -0.1 0 0.05
v -0.1 0 -0.05
v -0.1 0.1 0.05
v -0.1 0.1 -0.05
v 0.1 -0.1 0.05
v 0.1 -0.1 -0.05
v 0.1 0 0.05
v 0.1 0 -0.05
v 0.1 0.1 0.05
v 0.1 0.1 -0.05
v -0.1 -0.1 0.05
v -0.1 0 0.05
v -0.1 0.1 0.05
v 0 -0.1 0.05
v 0 0 0.05
v 0 0.1 0.05
v 0.1 -0.1 0.05
v 0.1 0 0.05
v 0.1 0.1 0.05
v -0.1 -0.1 -0.05
v -0.1 0 -0.05
v -0.1 0.1 -0.05
v 0 -0.1 -0.05
v 0 0 -0.05
v 0 0.1 -0.05
v 0.1 -0.1 -0.05
v 0.1 0 -0.05
v 0.1 0.1 -0.05
v -0.1 -0.1 0.05
v 0 -0.1 0.05
v 0.1 -0.1 0.05
v -0.1 -0.1 -0.05
v 0 -0.1 -0.05
v 0.1 -0.1 -0.05
v -0.1 0.1 0.05
v 0 0.1 0.05
v 0.1 0.1 0.05
v -0.1 0.1 -0.05
v 0 0.1 -0.05
v 0.1 0.1 -0.05

# faces
f 3/2/1 2/2/1 1/2/1
f 4/2/1 2/2/1 3/2/1
f 5/1/1 4/1/1 3/1/1
f 6/1/1 4/1/1 5/1/1
f 7/3/2 8/3/2 9/3/2
f 9/3/2 8/3/2 10/3/2
f 9/4/2 10/4/2 11/4/2
f 11/4/2 10/4/2 12/4/2
f 16/2/3 14/2/3 13/2/3
f 17/1/3 15/1/3 14/1/3
f 17/2/3 14/2/3 16/2/3
f 18/1/3 15/1/3 17/1/3
f 19/3/3 17/3/3 16/3/3
f 20/4/3 18/4/3 17/4/3
f 20/3/3 17/3/3 19/3/3
f 21/4/3 18/4/3 20/4/3
f 22/2/4 23/2/4 25/2/4
f 23/1/4 24/1/4 26/1/4
f 25/2/4 23/2/4 26/2/4
f 26/1/4 24/1/4 27/1/4
f 25/3/4 26/3/4 28/3/4
f 26/4/4 27/4/4 29/4/4
f 28/3/4 26/3/4 29/3/4
f 29/4/4 27/4/4 30/4/4
f 34/2/5 32/2/5 31/2/5
f 35/3/5 33/3/5 32/3/5
f 35/2/5 32/2/5 34/2/5
f 36/3/5 33/3/5 35/3/5
f 37/1/6 38/1/6 40/1/6
f 38/4/6 39/4/6 41/4/6
f 40/1/6 38/1/6 41/1/6
f 41/4/6 39/4/6 42/4/6
